<?xml version="1.0" standalone="no"?>
<!DOCTYPE svg PUBLIC "-//W3C//DTD SVG 20010904//EN"
 "http://www.w3.org/TR/2001/REC-SVG-20010904/DTD/svg10.dtd">
<svg version="1.0" xmlns="http://www.w3.org/2000/svg"
 width="1200.000000pt" height="168.000000pt" viewBox="0 0 1200.000000 168.000000"
 preserveAspectRatio="xMidYMid meet">

<g transform="translate(0.000000,168.000000) scale(0.100000,-0.100000)"
fill="#000000" stroke="none">
<path d="M0 840 l0 -840 1605 0 1605 0 -6 25 c-8 31 19 65 51 65 31 0 59 -34
53 -65 l-5 -25 157 0 157 0 6 82 c4 45 10 85 15 90 13 13 43 -2 41 -21 -3 -35
1 -42 20 -36 10 3 30 0 45 -6 23 -11 26 -18 26 -61 0 -44 2 -48 24 -48 20 0
24 6 29 39 12 96 133 138 153 53 4 -15 12 -30 18 -34 8 -5 7 -8 -1 -8 -7 0
-13 -6 -13 -13 0 -9 -17 -14 -52 -16 -29 -1 -57 -7 -63 -12 -6 -6 30 -9 105
-7 l115 3 -3 34 c-1 20 3 38 10 43 10 6 7 13 -11 29 -29 24 -17 42 25 37 33
-3 42 -28 24 -63 -6 -12 -10 -35 -8 -51 3 -28 6 -29 56 -32 l54 -3 -2 43 c-3
62 -3 62 28 96 24 28 32 31 78 29 51 -2 52 -2 48 -32 -2 -16 -5 -54 -8 -82
l-5 -53 29 0 c24 0 30 4 30 23 1 76 22 222 32 228 18 11 31 -17 19 -40 -14
-25 -4 -32 33 -26 17 3 37 2 44 -3 14 -10 18 -77 7 -140 l-7 -42 1619 0 c1576
0 1617 1 1594 19 -28 21 -23 57 7 48 112 -32 106 -32 148 -4 43 30 84 36 84
12 0 -8 -9 -20 -20 -27 -24 -15 -26 -34 -4 -42 9 -3 915 -6 2015 -6 l1999 0 0
840 0 840 -6000 0 -6000 0 0 -840z m8968 522 c2 -7 -6 -12 -17 -12 -21 0 -27
11 -14 24 9 9 26 2 31 -12z m-393 -28 c-33 -17 -35 -17 -35 -1 0 24 21 37 43
26 18 -10 18 -12 -8 -25z m135 17 c0 -11 -29 -35 -35 -29 -10 9 7 38 21 38 8
0 14 -4 14 -9z m-792 -63 c30 -3 39 -26 41 -96 1 -26 -3 -41 -9 -37 -5 3 -10
23 -10 44 0 39 -20 68 -40 56 -5 -3 -10 -28 -10 -55 0 -67 -16 -72 -24 -7 -13
108 -3 182 17 123 6 -17 17 -26 35 -28z m512 36 c0 -8 -4 -12 -10 -9 -5 3 -10
10 -10 16 0 5 5 9 10 9 6 0 10 -7 10 -16z m205 5 c9 -14 -3 -59 -15 -59 -6 0
-10 16 -10 35 0 34 12 46 25 24z m172 -21 c-3 -7 -5 -2 -5 12 0 14 2 19 5 13
2 -7 2 -19 0 -25z m-1647 -34 c0 -32 -4 -44 -15 -44 -11 0 -15 11 -15 43 0 24
3 47 6 50 14 14 24 -6 24 -49z m68 2 c3 -40 1 -47 -14 -44 -17 3 -30 59 -19
86 11 28 30 4 33 -42z m542 29 c0 -7 7 -16 16 -19 16 -6 16 -8 0 -24 -23 -26
-20 -77 6 -101 19 -18 19 -21 4 -27 -26 -10 -45 14 -52 67 -4 27 -10 49 -15
49 -14 0 -10 29 7 55 16 25 34 25 34 0z m-870 -16 c0 -20 -15 -26 -25 -9 -9
15 3 43 15 35 5 -3 10 -15 10 -26z m1328 -11 c4 -31 0 -33 -29 -17 -41 21 -66
-32 -32 -67 16 -15 18 -15 41 11 l23 28 -3 -34 c-3 -32 -5 -34 -43 -34 l-40 0
-3 54 c-4 63 16 94 57 89 20 -2 27 -9 29 -30z m-1942 -46 c6 -37 4 -42 -12
-42 -21 0 -29 41 -18 90 5 20 7 22 14 9 5 -9 12 -35 16 -57z m128 46 c3 -13 6
-55 6 -95 0 -62 3 -74 20 -83 11 -6 20 -7 20 -3 0 4 4 1 9 -7 14 -20 4 -30
-29 -30 -21 0 -31 6 -36 23 -12 32 -11 31 -13 112 -1 68 -3 75 -21 75 -11 0
-20 7 -20 15 0 10 10 15 29 15 21 0 30 -6 35 -22z m1665 -4 c23 -29 27 -74 11
-105 -12 -22 -59 -26 -78 -7 -18 18 -15 98 5 120 22 25 38 23 62 -8z m280 13
c6 -8 8 -16 5 -19 -3 -3 -7 -19 -8 -34 -2 -16 -4 -32 -5 -36 0 -5 -19 -8 -41
-8 -35 0 -40 3 -41 23 0 12 -2 31 -5 42 -2 11 -2 26 1 33 6 16 80 16 94 -1z
m209 -28 c-5 -35 -28 -36 -28 -1 0 16 3 32 7 36 11 11 25 -10 21 -35z m-2358
-24 c0 -32 -4 -45 -14 -45 -9 0 -15 15 -18 45 -3 38 0 45 14 45 15 0 18 -9 18
-45z m1325 23 c10 -42 10 -127 0 -130 -5 -2 -11 20 -13 47 -5 75 -22 81 -22 7
0 -34 -4 -62 -9 -62 -14 0 -21 27 -21 76 0 24 -4 44 -10 44 -6 0 -10 -27 -10
-61 0 -44 -3 -60 -12 -57 -13 5 -24 118 -14 144 4 9 23 14 55 14 44 0 51 -3
56 -22z m135 3 c5 -11 10 -29 10 -40 0 -17 -6 -21 -34 -21 -19 0 -38 -5 -41
-10 -11 -18 16 -40 47 -40 43 0 30 -24 -14 -28 -28 -2 -40 2 -52 20 -21 30
-21 96 1 120 22 24 69 24 83 -1z m-590 -20 c12 -24 14 -151 1 -151 -14 0 -21
27 -21 82 0 46 -2 49 -22 46 -21 -3 -23 -9 -26 -66 -2 -44 -7 -62 -15 -59 -12
3 -23 127 -14 151 3 6 23 12 45 14 32 2 43 -2 52 -17z m-2032 -3 c7 -7 12 -34
12 -61 0 -41 -3 -48 -17 -45 -14 2 -19 15 -21 61 -3 57 3 68 26 45z m1733 -74
c9 -122 -13 -168 -71 -149 -29 9 -26 33 4 28 18 -4 27 1 36 17 12 22 11 23
-18 17 -38 -8 -59 14 -68 69 -6 41 6 80 30 96 6 4 27 6 46 4 l35 -3 6 -79z
m123 55 c3 -17 6 -47 6 -66 0 -26 5 -36 20 -40 45 -12 13 -33 -51 -33 -42 0
-56 23 -19 33 16 4 20 14 20 52 0 38 -4 48 -20 52 -31 8 -25 33 9 33 24 0 29
-5 35 -31z m-1926 -33 c2 -27 -1 -53 -6 -58 -16 -16 -42 21 -42 61 0 42 7 53
30 49 10 -2 16 -18 18 -52z m1633 32 c22 -24 25 -84 7 -123 -9 -20 -18 -25
-45 -25 -19 0 -41 6 -49 14 -21 21 -24 96 -5 129 19 34 65 37 92 5z m-1767
-19 c3 -17 6 -55 6 -83 0 -68 8 -93 31 -99 33 -9 22 -34 -18 -41 -70 -11 -93
-8 -93 13 0 11 9 23 20 26 22 7 23 14 13 93 -5 44 -9 53 -23 49 -10 -3 -23 -1
-30 3 -17 11 -4 41 20 47 11 3 20 9 20 14 0 5 11 9 24 9 18 0 25 -7 30 -31z
m3853 5 c-9 -9 -28 6 -21 18 4 6 10 6 17 -1 6 -6 8 -13 4 -17z m-4609 -16 c2
-9 -5 -19 -17 -23 -27 -8 -26 -18 1 -30 32 -15 33 -33 3 -47 -26 -12 -27 -15
-23 -73 6 -71 2 -85 -22 -85 -21 0 -30 27 -30 92 0 39 -4 50 -27 67 l-28 21
23 19 c12 11 22 27 22 37 0 40 91 61 98 22z m1847 12 c-3 -5 1 -10 10 -10 9 0
13 -4 10 -10 -3 -5 -1 -10 4 -10 6 0 11 -11 11 -25 0 -22 -4 -24 -57 -27 -40
-2 -58 -7 -60 -18 -4 -13 -3 -13 6 0 9 12 11 11 11 -7 0 -14 6 -23 16 -23 8 0
12 -4 9 -10 -4 -6 7 -10 24 -10 17 0 31 5 31 10 0 6 4 10 10 10 5 0 7 -7 4
-15 -7 -18 -84 -21 -84 -3 0 6 -3 8 -7 5 -12 -13 -32 29 -33 68 0 54 25 85 68
85 20 0 31 -4 27 -10z m-2140 -57 c5 -38 3 -48 -14 -64 -20 -18 -20 -18 -35 3
-22 31 -21 94 1 106 27 16 41 3 48 -45z m79 41 c13 -33 6 -104 -10 -111 -8 -3
-20 -1 -25 4 -13 13 -24 87 -16 108 8 20 43 19 51 -1z m1724 -2 c8 -7 15 -43
17 -87 l5 -75 -53 0 c-61 0 -77 12 -77 55 0 34 22 51 69 57 14 2 26 9 29 16 3
10 -7 13 -39 11 -34 -3 -44 0 -47 13 -5 27 70 35 96 10z m132 8 c0 -5 8 -10
18 -10 14 0 15 2 2 10 -12 8 -11 10 8 10 12 0 22 -5 22 -11 0 -5 5 -7 10 -4 6
4 10 -11 10 -37 0 -24 3 -60 6 -80 5 -29 3 -38 -8 -38 -11 0 -14 11 -12 40 1
25 -2 40 -10 40 -6 0 -4 5 4 10 13 8 13 10 1 10 -12 0 -12 3 -3 12 18 18 15
28 -9 28 -19 0 -20 -5 -17 -70 3 -61 1 -70 -14 -70 -16 0 -18 10 -18 71 0 62
-2 70 -17 67 -22 -4 -28 -52 -14 -102 6 -24 6 -38 0 -42 -15 -9 -16 -6 -23 89
l-7 87 35 0 c20 0 36 -4 36 -10z m410 -10 c0 -18 -7 -20 -70 -20 -110 0 -81
35 33 39 31 1 37 -2 37 -19z m-800 -1 c0 -8 4 -8 14 1 23 18 59 8 73 -20 17
-37 21 -142 6 -147 -9 -3 -13 10 -13 49 -1 55 -16 88 -42 88 -28 0 -36 -21
-30 -86 4 -53 2 -64 -10 -64 -10 0 -18 14 -22 38 -8 49 -8 137 1 145 10 11 23
8 23 -4z m-1871 -27 c5 -10 13 -64 17 -120 8 -126 0 -142 -78 -142 -41 0 -54
5 -79 29 -24 25 -29 38 -29 78 0 70 31 113 83 113 23 0 29 5 34 30 6 34 36 41
52 12z m1041 -7 c18 -21 4 -48 -21 -42 -13 4 -28 -2 -41 -15 -16 -16 -19 -29
-16 -69 6 -54 -3 -75 -26 -66 -10 4 -16 18 -16 40 0 19 -3 62 -6 96 l-7 62 36
-3 c20 -1 39 1 43 5 12 12 41 8 54 -8z m188 3 c6 -7 13 -50 17 -95 7 -79 7
-83 -12 -83 -18 0 -21 9 -27 70 -9 90 -31 96 -24 6 6 -69 -1 -92 -26 -83 -11
4 -16 23 -18 72 -2 36 -7 65 -13 65 -6 0 -9 -28 -6 -71 3 -65 2 -71 -15 -67
-16 3 -20 17 -28 86 -4 45 -5 89 -2 97 7 19 138 21 154 3z m-1508 -20 c1 -13
9 -41 20 -63 11 -22 19 -57 20 -78 0 -24 5 -40 15 -43 8 -4 15 -18 15 -34 0
-25 -4 -28 -51 -34 -68 -9 -104 21 -64 54 20 17 19 75 -2 111 -14 24 -15 33
-5 49 6 11 12 29 12 40 0 13 7 20 20 20 14 0 20 -7 20 -22z m1093 -2 c24 -21
29 -34 32 -85 4 -52 1 -64 -17 -81 -32 -29 -92 -27 -123 5 -21 20 -25 34 -25
80 0 46 4 60 25 80 31 32 72 32 108 1z m1864 -22 c0 -13 -8 -15 -45 -9 -32 5
-47 3 -53 -7 -7 -10 -9 -10 -9 0 0 6 -9 12 -21 12 -11 0 -17 5 -14 10 3 6 37
10 74 10 55 0 68 -3 68 -16z m-2446 -14 c24 -13 24 -25 0 -49 -20 -20 -20 -20
0 -26 24 -8 25 -42 2 -49 -47 -13 -152 -17 -172 -7 -24 13 -28 39 -6 47 12 5
12 10 -6 32 l-20 27 21 17 c25 21 147 26 181 8z m-1831 -60 c23 -23 24 -27 9
-69 -9 -25 -8 -36 5 -57 21 -31 13 -62 -19 -74 -27 -10 -167 30 -196 56 -25
23 -24 66 2 90 24 21 136 72 162 73 9 1 26 -8 37 -19z m6338 -144 c5 -26 -17
-49 -34 -35 -17 14 -18 31 -2 47 16 16 32 10 36 -12z m-1603 -28 c1 -2 -1 -28
-6 -58 -15 -105 -12 -128 19 -144 l27 -15 -31 -1 c-41 0 -58 21 -50 62 4 18 6
50 6 70 0 20 4 39 10 43 19 12 10 25 -16 25 -22 0 -24 3 -15 14 10 12 47 14
56 4z m-602 -45 c-6 -2 -9 -28 -7 -63 3 -33 0 -60 -5 -60 -5 0 -8 -22 -7 -50
l3 -50 -51 2 c-36 1 -42 2 -18 5 18 2 30 9 27 14 -4 5 -1 9 4 9 6 0 14 18 17
40 4 22 12 40 18 40 6 0 4 5 -4 10 -13 9 -13 10 0 11 8 0 4 5 -10 9 -17 5 -19
8 -7 9 13 1 17 10 17 36 0 36 21 74 29 52 2 -6 -1 -13 -6 -14z m1065 -11 c3
-30 1 -33 -20 -30 -23 3 -34 27 -24 54 11 28 41 11 44 -24z m-178 8 c0 -5 7
-10 15 -10 8 0 15 5 15 10 0 16 37 11 44 -6 4 -12 1 -14 -14 -9 -30 9 -57 -26
-65 -84 -4 -28 -12 -51 -17 -51 -7 0 -9 19 -4 53 3 28 6 64 6 80 0 15 5 27 10
27 6 0 10 -4 10 -10z m-91 -31 c32 -57 -39 -163 -88 -132 -25 16 -21 129 5
148 28 22 66 14 83 -16z m1417 6 c9 -35 -21 -81 -42 -64 -20 16 -18 66 4 78
26 15 31 13 38 -14z m-1730 -79 c-6 -56 -28 -86 -63 -86 -41 0 -56 24 -51 84
5 58 21 82 59 88 40 7 62 -27 55 -86z m-158 57 c2 -7 -3 -13 -11 -13 -9 0 -18
6 -21 13 -5 10 -7 10 -12 0 -3 -7 -11 -13 -17 -13 -7 0 -18 -14 -26 -30 -16
-39 1 -90 30 -90 11 0 19 5 19 10 0 6 7 10 15 10 13 0 14 -4 5 -20 -13 -24
-64 -27 -85 -6 -29 28 -19 98 19 143 14 16 78 13 84 -4z m-1497 -15 c3 -40 0
-99 -6 -108 -14 -23 19 -8 46 21 16 17 36 29 45 27 14 -2 11 -9 -14 -36 -33
-35 -33 -47 0 -94 10 -14 18 -31 18 -38 0 -23 -33 -4 -51 30 -25 45 -42 44
-50 -3 -7 -42 -13 -52 -28 -42 -14 8 -14 85 -1 85 6 0 10 15 10 33 0 57 13
137 21 137 5 0 9 -6 10 -12z m1112 5 c-7 -2 -19 -2 -25 0 -7 3 -2 5 12 5 14 0
19 -2 13 -5z m-134 -30 c-1 -22 -2 -23 -6 -8 -3 11 -10 23 -17 27 -7 5 -5 8 7
8 12 0 17 -7 16 -27z m-166 8 c3 8 6 2 6 -13 1 -16 -2 -28 -7 -28 -4 0 -6 -19
-4 -42 2 -32 1 -39 -7 -28 -9 12 -11 10 -11 -12 0 -16 6 -29 13 -29 20 -2 -45
-17 -80 -18 l-33 -1 0 58 c0 41 3 53 10 42 7 -11 8 -2 4 28 -6 37 -4 42 12 42
16 0 17 -2 4 -10 -8 -5 -10 -10 -5 -10 6 0 9 -23 7 -55 -4 -58 9 -88 34 -78 7
3 11 9 8 14 -3 5 0 9 5 9 6 0 11 9 11 20 0 11 4 20 8 20 5 0 7 24 5 53 -3 34
-1 47 5 38 8 -11 10 -11 15 0z m95 -7 c6 4 8 -2 5 -15 -4 -15 -8 -17 -14 -8
-5 8 -9 2 -12 -17 -3 -21 -4 -17 -5 16 -1 29 1 40 7 31 5 -7 13 -11 19 -7z
m-294 0 c9 -3 16 -12 16 -20 0 -8 5 -14 10 -14 6 0 10 -16 10 -35 0 -19 -4
-35 -9 -35 -5 0 -12 -16 -15 -35 -7 -33 -9 -35 -49 -35 -24 0 -48 5 -55 12
-14 14 -16 98 -2 98 6 0 9 3 8 8 -5 19 15 51 35 55 12 2 25 5 29 6 3 0 13 -2
22 -5z m1631 -29 c0 -38 -31 -47 -44 -13 -12 31 -3 50 23 46 16 -2 21 -10 21
-33z m-2955 6 c11 -22 13 -71 4 -95 -8 -21 -40 -21 -48 0 -8 21 -8 99 1 107
12 13 32 7 43 -12z m125 -18 c-6 -32 -5 -33 29 -33 47 0 66 -9 66 -31 0 -10 5
-19 11 -19 6 0 7 -5 2 -12 -4 -7 -8 -15 -8 -18 -5 -40 -19 -86 -31 -97 -9 -9
-14 -10 -14 -3 0 7 -6 5 -16 -4 -18 -19 -28 -20 -55 -6 -13 8 -19 7 -19 0 0
-6 -5 -8 -11 -4 -8 5 -9 29 -5 78 4 39 7 88 6 109 0 20 4 37 10 37 5 0 9 3 9
8 -3 19 2 29 17 29 12 0 14 -7 9 -34z m1049 31 c31 -12 18 -34 -20 -34 -27 0
-37 -5 -41 -20 -3 -11 -9 -20 -14 -20 -5 0 -9 -19 -9 -42 0 -44 -14 -78 -25
-66 -4 4 -4 45 0 92 5 61 11 86 21 86 7 0 16 -5 19 -10 4 -6 12 -4 21 5 17 17
25 18 48 9z m876 -13 c0 -17 -9 -20 -65 -23 -56 -3 -65 -1 -65 14 0 14 11 18
58 21 31 2 60 4 65 5 4 1 7 -7 7 -17z m-2136 -7 c3 -9 6 -36 6 -60 0 -48 -21
-68 -45 -43 -18 20 -28 106 -12 112 24 10 45 7 51 -9z m1076 -9 c0 -5 -5 -52
-10 -103 -10 -93 -23 -122 -54 -122 -9 0 -16 -4 -16 -8 0 -11 -58 -3 -66 9 -6
10 41 23 55 15 10 -7 41 19 41 35 0 5 -15 9 -33 9 -18 0 -38 5 -45 12 -19 19
-14 97 9 134 19 31 23 33 70 31 27 -1 49 -6 49 -12z m714 -3 c-17 -11 -27 -89
-11 -95 7 -4 6 -6 -4 -6 -10 -1 -19 9 -21 24 -3 14 -1 25 3 25 5 0 9 14 9 30
0 22 5 30 18 30 10 0 13 -3 6 -8z m68 -36 c7 -13 7 -16 -1 -12 -6 4 -11 3 -11
-3 0 -5 5 -11 12 -13 7 -3 6 -7 -5 -11 -15 -5 -17 0 -16 41 0 26 3 40 6 32 3
-8 10 -23 15 -34z m-2449 20 c8 -9 17 -47 21 -96 7 -86 19 -116 48 -123 11 -3
18 -15 18 -31 0 -23 -4 -26 -35 -26 -59 0 -81 34 -90 134 -6 71 -10 88 -31
107 -18 17 -21 25 -13 36 15 17 64 17 82 -1z m1285 2 c22 -22 13 -28 -32 -24
-40 4 -45 2 -55 -22 -18 -48 -17 -74 4 -96 13 -12 21 -13 40 -4 28 13 40 6 32
-17 -10 -25 -82 -20 -107 8 -18 18 -21 30 -16 66 10 71 95 128 134 89z m-224
-10 c33 -15 40 -37 31 -113 l-6 -63 -53 -6 c-74 -10 -86 -3 -86 48 0 36 4 45
25 54 14 7 39 12 55 12 16 0 31 4 35 9 8 14 -25 43 -41 37 -8 -3 -21 -9 -29
-12 -11 -4 -15 0 -15 16 0 11 4 19 8 16 4 -2 14 -1 22 5 19 11 24 11 54 -3z
m1223 -40 c-3 -7 -5 -2 -5 12 0 14 2 19 5 13 2 -7 2 -19 0 -25z m-20 -30 c-2
-13 -4 -5 -4 17 -1 22 1 32 4 23 2 -10 2 -28 0 -40z m-2696 10 c48 -27 57 -50
30 -84 -28 -35 -26 -59 4 -90 14 -14 25 -36 25 -49 0 -21 -5 -25 -29 -25 -45
0 -76 32 -95 99 -9 33 -22 63 -27 67 -20 12 17 104 42 104 6 0 29 -10 50 -22z
m710 -7 c48 -49 21 -100 -53 -101 -19 0 -28 -5 -28 -16 0 -13 7 -16 39 -11 47
6 65 -4 57 -31 -14 -42 -101 -44 -145 -3 -27 25 -31 36 -31 81 0 44 4 56 29
81 41 40 91 40 132 0z m223 16 c10 -7 17 -22 14 -33 -3 -16 -16 -20 -87 -28
-71 -7 -85 -6 -99 8 -29 29 -4 50 69 57 35 3 69 6 75 7 5 1 18 -4 28 -11z
m-646 -29 c16 -16 15 -45 -2 -99 -8 -24 -20 -65 -27 -90 -14 -51 -34 -81 -61
-92 -25 -9 -48 2 -48 23 0 10 7 23 15 30 23 19 18 45 -25 128 -36 68 -39 78
-25 88 24 18 51 6 71 -31 14 -26 21 -32 31 -23 7 6 13 16 13 22 0 14 29 56 39
56 4 0 12 -5 19 -12z m-480 -31 c8 -6 11 -20 8 -33 -4 -13 2 -31 14 -47 30
-37 27 -100 -5 -121 -32 -21 -99 -21 -120 1 -16 16 -16 18 5 35 l22 18 -31 35
c-36 42 -39 63 -11 98 28 35 83 41 118 14z m1148 -29 c3 -5 -2 -18 -12 -29
-15 -17 -29 -19 -98 -17 -75 3 -81 5 -84 25 -4 26 12 31 98 35 63 3 88 0 96
-14z m-2285 -47 c22 -18 22 -21 9 -60 -12 -36 -11 -43 3 -59 35 -38 15 -82
-38 -82 -51 0 -169 38 -187 61 -40 47 -14 89 82 132 67 31 101 33 131 8z
m4319 -142 c0 -35 -4 -49 -14 -49 -9 0 -15 15 -18 45 -4 55 -1 65 18 58 9 -3
14 -21 14 -54z m-76 1 c0 -23 4 -40 10 -41 11 0 -22 -17 -36 -18 -5 -1 -8 22
-8 49 0 41 3 50 18 50 14 0 17 -8 16 -40z m234 -35 c6 6 42 -34 42 -47 0 -4
-7 -8 -15 -8 -8 0 -15 -4 -15 -10 0 -5 -9 -10 -20 -10 -11 0 -20 -3 -20 -7 0
-9 -57 -43 -71 -43 -31 0 9 52 50 65 30 9 27 35 -4 35 -14 0 -25 5 -25 10 0 6
-6 10 -14 10 -18 0 -29 27 -13 33 7 2 32 -5 56 -15 24 -10 46 -16 49 -13z
m-358 -25 c0 -25 -4 -30 -25 -30 -21 0 -25 5 -25 30 0 25 4 30 25 30 21 0 25
-5 25 -30z m-1088 -37 c3 -24 7 -28 31 -26 22 2 28 -2 25 -15 -2 -9 -12 -17
-23 -17 -33 -1 -42 -12 -48 -61 -5 -51 6 -74 35 -66 12 3 18 -1 18 -12 0 -12
-9 -16 -34 -16 -48 0 -60 19 -53 85 5 48 3 56 -14 65 -25 14 -25 34 1 27 15
-4 20 0 20 14 0 20 19 48 32 49 4 0 8 -12 10 -27z m-579 -49 c-9 -23 -32 3
-25 28 5 20 6 20 18 4 7 -10 10 -24 7 -32z m775 -3 c-2 -22 -8 -26 -33 -26
-26 0 -30 4 -33 32 -3 26 1 32 20 35 32 5 50 -11 46 -41z m4451 25 c9 -11 10
-20 1 -35 -14 -27 -46 -27 -61 1 -10 18 -8 24 7 35 23 17 39 17 53 -1z m251
-2 c0 -18 -23 -44 -39 -44 -20 0 -35 25 -25 41 6 10 64 13 64 3z m-3800 -55
c0 -31 -32 -75 -47 -66 -4 3 -7 26 -5 51 3 32 9 46 20 49 26 5 32 -1 32 -34z
m3048 -1 c-6 -18 -28 -21 -28 -4 0 9 7 16 16 16 9 0 14 -5 12 -12z m-3945 -84
c2 -26 -1 -29 -28 -29 -26 0 -30 4 -33 32 -3 26 1 32 20 35 30 5 38 -3 41 -38z
m3937 26 c0 -5 -4 -10 -10 -10 -5 0 -10 5 -10 10 0 6 5 10 10 10 6 0 10 -4 10
-10z m-3573 -6 c-3 -3 -12 -4 -19 -1 -8 3 -5 6 6 6 11 1 17 -2 13 -5z"/>
<path d="M8032 1258 c-20 -20 -15 -66 9 -78 25 -14 27 -12 38 28 7 24 5 34 -8
46 -21 19 -24 19 -39 4z"/>
<path d="M7610 1234 c0 -17 22 -14 28 4 2 7 -3 12 -12 12 -9 0 -16 -7 -16 -16z"/>
<path d="M6695 1190 c-7 -22 1 -57 18 -78 24 -30 49 35 31 82 -9 23 -41 20
-49 -4z"/>
<path d="M6552 1201 c-20 -12 -17 -80 3 -100 15 -15 17 -15 31 3 17 23 18 59
4 87 -12 21 -18 23 -38 10z"/>
<path d="M5886 1184 c-23 -23 -20 -34 12 -35 l27 -1 -30 -8 c-26 -6 -23 -8 20
-8 28 0 42 2 33 5 -10 2 -15 10 -11 18 3 8 -2 21 -10 30 -19 19 -22 19 -41 -1z"/>
<path d="M5523 1085 c-8 -23 26 -58 44 -44 7 6 13 18 13 25 0 8 5 14 11 14 5
0 7 5 4 10 -10 16 -65 12 -72 -5z"/>
<path d="M3371 1024 c-10 -22 -9 -31 4 -50 20 -31 33 -30 47 1 9 19 8 29 -6
50 -21 32 -30 32 -45 -1z"/>
<path d="M4216 1085 c-21 -22 -15 -73 11 -92 13 -10 19 -9 29 5 19 24 17 56
-4 82 -17 22 -19 22 -36 5z"/>
<path d="M6735 778 c-22 -22 -27 -90 -7 -110 18 -18 52 27 52 69 0 48 -19 65
-45 41z"/>
<path d="M6421 763 c-32 -35 -32 -123 1 -123 22 0 49 58 41 88 -9 39 -26 52
-42 35z"/>
<path d="M5404 702 c3 -5 -4 -15 -15 -22 -19 -15 -25 -53 -13 -98 8 -29 35
-25 49 6 5 12 13 22 17 22 14 0 8 71 -6 86 -15 15 -41 20 -32 6z"/>
<path d="M4253 606 c-21 -24 -27 -84 -10 -101 20 -19 47 -19 47 0 0 8 5 15 10
15 11 0 14 59 4 84 -7 19 -35 20 -51 2z"/>
<path d="M6083 693 c9 -2 25 -2 35 0 9 3 1 5 -18 5 -19 0 -27 -2 -17 -5z"/>
<path d="M5011 635 c-20 -42 -20 -47 -5 -70 13 -21 19 -22 39 -13 34 15 46 92
19 113 -27 21 -30 19 -53 -30z"/>
<path d="M4452 557 c-25 -8 -32 -15 -30 -31 3 -22 48 -37 48 -16 0 6 4 9 9 6
11 -7 23 36 13 45 -4 3 -22 1 -40 -4z"/>
<path d="M4497 145 c-9 -7 -21 -36 -27 -65 -15 -78 -14 -80 24 -80 32 0 34 2
40 46 13 98 2 128 -37 99z"/>
<path d="M4292 128 c-7 -7 -12 -20 -12 -30 0 -10 -4 -18 -10 -18 -20 0 -10
-49 12 -61 18 -10 24 -8 40 11 28 35 20 110 -12 110 -3 0 -11 -5 -18 -12z"/>
<path d="M3890 85 c-17 -20 -5 -33 25 -27 18 3 24 9 21 19 -3 8 -6 17 -6 19 0
10 -29 3 -40 -11z"/>
<path d="M3684 67 c-6 -7 -13 -25 -16 -40 -5 -25 -3 -27 28 -27 29 0 34 3 34
24 0 51 -22 71 -46 43z"/>
</g>
</svg>
