<svg xmlns="http://www.w3.org/2000/svg" version="1.1" xmlns:xlink="http://www.w3.org/1999/xlink" xmlns:svgjs="http://svgjs.com/svgjs" width="1440" height="560" preserveAspectRatio="none" viewBox="0 0 1440 560"><g mask="url(&quot;#SvgjsMask1023&quot;)" fill="none"><path d="M469.95 190.15L489.83 190.15L489.83 195.46L469.95 195.46z" stroke="#037b0b"></path><path d="M330.09 232.6L337.74 232.6L337.74 281.42L330.09 281.42z" stroke="#037b0b"></path><path d="M1352.24 90.65a51.8 51.8 0 1 0 92.62-46.42z" stroke="#037b0b"></path><path d="M140.26 418.99L178.32 418.99L178.32 474.05L140.26 474.05z" stroke="rgba(0, 0, 0, 1)"></path><path d="M35.67 214.56 a50.83 50.83 0 1 0 101.66 0 a50.83 50.83 0 1 0 -101.66 0z" stroke="#d3b714"></path><path d="M1220.79 538.88L1247.24 538.88L1247.24 565.33L1220.79 565.33z" stroke="#d3b714"></path><path d="M1381.61 328.09a53.2 53.2 0 1 0-56.64-90.07z" fill="rgba(0, 0, 0, 1)"></path><path d="M415.1 185.46 a12.46 12.46 0 1 0 24.92 0 a12.46 12.46 0 1 0 -24.92 0z" stroke="rgba(0, 0, 0, 1)"></path><path d="M438.19 12.25 a23.9 23.9 0 1 0 47.8 0 a23.9 23.9 0 1 0 -47.8 0z" fill="#d3b714"></path><path d="M791.76 114.8L832.37 114.8L832.37 170.76L791.76 170.76z" stroke="rgba(0, 0, 0, 1)"></path><path d="M1225.78 297.84L1235.82 297.84L1235.82 326.55L1225.78 326.55z" fill="#037b0b"></path><path d="M986.3 207.26 a46.09 46.09 0 1 0 92.18 0 a46.09 46.09 0 1 0 -92.18 0z" fill="rgba(0, 0, 0, 1)"></path><path d="M229.59 489.86L263.71 489.86L263.71 523.98L229.59 523.98z" stroke="#037b0b"></path><path d="M212.8 404.44L225.96 404.44L225.96 417.6L212.8 417.6z" stroke="#037b0b"></path><path d="M1177.59 174.71 a21.85 21.85 0 1 0 43.7 0 a21.85 21.85 0 1 0 -43.7 0z" fill="#d3b714"></path><path d="M1104.33 147.35L1135.89 147.35L1135.89 178.91L1104.33 178.91z" stroke="#037b0b"></path><path d="M1017.3 531.56L1063.2 531.56L1063.2 577.46L1017.3 577.46z" stroke="#037b0b"></path><path d="M816.55 12.38 a4.39 4.39 0 1 0 8.78 0 a4.39 4.39 0 1 0 -8.78 0z" fill="#d3b714"></path><path d="M442.08 452.83 a1.47 1.47 0 1 0 2.94 0 a1.47 1.47 0 1 0 -2.94 0z" stroke="rgba(0, 0, 0, 1)"></path><path d="M30.47 215.58L74.39 215.58L74.39 267.17L30.47 267.17z" stroke="#d3b714"></path><path d="M216.22 256.85a29.52 29.52 0 1 0 30.77-50.39z" stroke="#037b0b"></path><path d="M760.56 83.12 a26.99 26.99 0 1 0 53.98 0 a26.99 26.99 0 1 0 -53.98 0z" stroke="rgba(0, 0, 0, 1)"></path><path d="M1100.18 129.3 a28.45 28.45 0 1 0 56.9 0 a28.45 28.45 0 1 0 -56.9 0z" fill="#d3b714"></path><path d="M940.5 56.27L975.5 56.27L975.5 91.27L940.5 91.27z" stroke="#037b0b"></path><path d="M400.73 391.82a2.97 2.97 0 1 0-5.86 0.94z" fill="#037b0b"></path><path d="M48.44 3.18L51.88 3.18L51.88 6.62L48.44 6.62z" stroke="rgba(0, 0, 0, 1)"></path><path d="M981.73 533.17 a13.7 13.7 0 1 0 27.4 0 a13.7 13.7 0 1 0 -27.4 0z" fill="rgba(0, 0, 0, 1)"></path><path d="M1139.33 80.16L1195.26 80.16L1195.26 127.33L1139.33 127.33z" stroke="rgba(0, 0, 0, 1)"></path><path d="M188.56 88.76a1.07 1.07 0 1 0-1.05 1.86z" fill="#037b0b"></path><path d="M960.12 464.03 a7.47 7.47 0 1 0 14.94 0 a7.47 7.47 0 1 0 -14.94 0z" fill="rgba(0, 0, 0, 1)"></path><path d="M119.28 504.62L156.02 504.62L156.02 541.36L119.28 541.36z" fill="#d3b714"></path><path d="M969.25 460.62L972.24 460.62L972.24 463.61L969.25 463.61z" stroke="#d3b714"></path><path d="M199.79 280.89L202.51 280.89L202.51 291.3L199.79 291.3z" stroke="rgba(0, 0, 0, 1)"></path></g><defs><mask id="SvgjsMask1023"><rect width="1440" height="560" fill="#ffffff"></rect></mask></defs></svg>